<svg width="50" height="50" viewBox="0 0 50 50" fill="none" xmlns="http://www.w3.org/2000/svg">
<path d="M22.6895 20.918C23.3028 21.5298 24.1337 21.8734 25 21.8734C25.8663 21.8734 26.6973 21.5298 27.3106 20.918L33.418 14.8086C33.7214 14.5053 33.962 14.1453 34.1262 13.749C34.2904 13.3527 34.3749 12.928 34.3749 12.499C34.3749 12.0701 34.2904 11.6453 34.1262 11.249C33.962 10.8528 33.7214 10.4927 33.418 10.1895L27.3106 4.08008C26.6973 3.46823 25.8663 3.12462 25 3.12462C24.1337 3.12462 23.3028 3.46823 22.6895 4.08008L16.582 10.1895C16.2787 10.4927 16.038 10.8528 15.8738 11.249C15.7096 11.6453 15.6251 12.0701 15.6251 12.499C15.6251 12.928 15.7096 13.3527 15.8738 13.749C16.038 14.1453 16.2787 14.5053 16.582 14.8086L22.6895 20.918ZM18.7832 12.3984L24.8926 6.29102C24.9186 6.26525 24.9537 6.2508 24.9902 6.2508C25.0268 6.2508 25.0619 6.26525 25.0879 6.29102L31.1973 12.3984C31.2217 12.4251 31.2353 12.4599 31.2353 12.4961C31.2353 12.5323 31.2217 12.5671 31.1973 12.5938L25.0996 18.709C25.0734 18.7343 25.0384 18.7484 25.002 18.7484C24.9655 18.7484 24.9305 18.7343 24.9043 18.709L18.791 12.5996C18.7649 12.5726 18.7503 12.5366 18.7503 12.499C18.7503 12.4615 18.7649 12.4254 18.791 12.3984H18.7832ZM45.9121 22.6895L39.8106 16.5801C39.1976 15.9684 38.367 15.6248 37.501 15.6248C36.635 15.6248 35.8044 15.9684 35.1914 16.5801L29.082 22.6895C28.4702 23.3028 28.1266 24.1337 28.1266 25C28.1266 25.8663 28.4702 26.6973 29.082 27.3105L35.1914 33.4199C35.8044 34.0317 36.635 34.3752 37.501 34.3752C38.367 34.3752 39.1976 34.0317 39.8106 33.4199L45.9199 27.3105C46.5318 26.6973 46.8754 25.8663 46.8754 25C46.8754 24.1337 46.5318 23.3028 45.9199 22.6895H45.9121ZM43.7109 25.0996L37.6016 31.209C37.5749 31.2334 37.5401 31.247 37.5039 31.247C37.4678 31.247 37.4329 31.2334 37.4063 31.209L31.2969 25.0996C31.2716 25.0734 31.2574 25.0384 31.2574 25.002C31.2574 24.9655 31.2716 24.9305 31.2969 24.9043L37.4063 18.7949C37.4329 18.7705 37.4678 18.7569 37.5039 18.7569C37.5401 18.7569 37.5749 18.7705 37.6016 18.7949L43.7109 24.9043C43.7363 24.9305 43.7504 24.9655 43.7504 25.002C43.7504 25.0384 43.7363 25.0734 43.7109 25.0996ZM20.918 22.6895L14.8086 16.5801C14.1956 15.9684 13.365 15.6248 12.499 15.6248C11.633 15.6248 10.8024 15.9684 10.1895 16.5801L4.08009 22.6895C3.46824 23.3028 3.12463 24.1337 3.12463 25C3.12463 25.8663 3.46824 26.6973 4.08009 27.3105L10.1895 33.4199C10.8024 34.0317 11.633 34.3752 12.499 34.3752C13.365 34.3752 14.1956 34.0317 14.8086 33.4199L20.918 27.3105C21.5298 26.6973 21.8734 25.8663 21.8734 25C21.8734 24.1337 21.5298 23.3028 20.918 22.6895ZM18.709 25.0996L12.5996 31.209C12.573 31.2334 12.5381 31.247 12.502 31.247C12.4658 31.247 12.431 31.2334 12.4043 31.209L6.28908 25.0996C6.26378 25.0734 6.24964 25.0384 6.24964 25.002C6.24964 24.9655 6.26378 24.9305 6.28908 24.9043L12.3985 18.791C12.4251 18.7666 12.4599 18.753 12.4961 18.753C12.5323 18.753 12.5671 18.7666 12.5938 18.791L18.7031 24.9004C18.7166 24.9131 18.7275 24.9283 18.7351 24.9452C18.7427 24.9621 18.7469 24.9803 18.7475 24.9988C18.748 25.0173 18.7449 25.0357 18.7383 25.053C18.7317 25.0703 18.7217 25.0862 18.709 25.0996ZM27.3027 29.082C26.6894 28.4702 25.8585 28.1266 24.9922 28.1266C24.1259 28.1266 23.295 28.4702 22.6817 29.082L16.582 35.1914C16.2787 35.4947 16.038 35.8547 15.8738 36.251C15.7096 36.6473 15.6251 37.072 15.6251 37.501C15.6251 37.9299 15.7096 38.3547 15.8738 38.751C16.038 39.1472 16.2787 39.5073 16.582 39.8105L22.6895 45.9199C23.3028 46.5318 24.1337 46.8754 25 46.8754C25.8663 46.8754 26.6973 46.5318 27.3106 45.9199L33.418 39.8105C33.7214 39.5073 33.962 39.1472 34.1262 38.751C34.2904 38.3547 34.3749 37.9299 34.3749 37.501C34.3749 37.072 34.2904 36.6473 34.1262 36.251C33.962 35.8547 33.7214 35.4947 33.418 35.1914L27.3027 29.082ZM31.209 37.6016L25.0996 43.709C25.0736 43.7347 25.0385 43.7492 25.002 43.7492C24.9654 43.7492 24.9303 43.7347 24.9043 43.709L18.791 37.6016C18.7666 37.5749 18.753 37.5401 18.753 37.5039C18.753 37.4678 18.7666 37.4329 18.791 37.4062L24.9004 31.2969C24.9266 31.2716 24.9616 31.2574 24.9981 31.2574C25.0345 31.2574 25.0695 31.2716 25.0957 31.2969L31.2051 37.4062C31.2301 37.4324 31.2443 37.467 31.245 37.5031C31.2458 37.5393 31.2329 37.5744 31.209 37.6016Z" fill="#622BBC"/>
</svg>
