<svg width="35" height="35" viewBox="0 0 35 35" fill="none" xmlns="http://www.w3.org/2000/svg">
<g id="Group 23">
<path id="Vector 24" d="M8.60423 22.8397L7.17488 23.594L7.17483 30.1555L15.282 32.8358C16.807 33.34 18.4587 33.3049 19.96 32.7363L30.5338 28.7313C31.3172 28.4346 31.7929 27.6377 31.6824 26.8072C31.539 25.7293 30.482 25.0211 29.4307 25.2987L18.1047 28.2889L21.5066 27.0768C22.3989 26.7589 22.9472 25.8607 22.8222 24.9215C22.7247 24.1883 22.0512 23.6725 21.3179 23.7694L17.6355 24.256C16.8406 24.361 16.0323 24.2248 15.3154 23.8649L13.1821 22.7941C11.7377 22.069 10.0326 22.086 8.60423 22.8397Z" fill="#FF9228"/>
<path id="Vector 23" d="M2.93347 24.1963V30.315C2.93347 31.2815 3.71697 32.065 4.68347 32.065H6.17489C7.14139 32.065 7.92489 31.2815 7.92489 30.315V24.1963C7.92489 23.2298 7.14139 22.4463 6.17489 22.4463H4.68347C3.71697 22.4463 2.93347 23.2298 2.93347 24.1963Z" fill="#FF9228" stroke="#FFF5F3" stroke-width="1.5" stroke-linecap="round"/>
<path id="Union" fill-rule="evenodd" clip-rule="evenodd" d="M8.74885 4.28066C6.12522 6.8953 6.12522 11.1345 8.74885 13.7491L14.6248 19.6049C15.4151 20.3925 16.4534 20.7823 17.4892 20.7744C18.525 20.7823 19.5633 20.3925 20.3536 19.6049L26.2296 13.7491C28.8532 11.1345 28.8532 6.8953 26.2296 4.28066C23.8466 1.90587 20.1189 1.68803 17.4892 3.62715C14.8596 1.68803 11.1318 1.90587 8.74885 4.28066Z" fill="#FF9228"/>
<path id="Vector 22" d="M4.84674 10.6123H11.2477L13.3813 8.52464L17.4415 13.9178L21.7088 6.95889L24.3759 10.6123H30.4505" stroke="#FFF5F3" stroke-width="1.5" stroke-linecap="round"/>
</g>
</svg>
