<svg width="35" height="36" viewBox="0 0 35 36" fill="none" xmlns="http://www.w3.org/2000/svg">
<g id="Group 21">
<path id="Rectangle 47" d="M26.8334 27.2795V17.4169L7 15.1909V27.2795C7 28.1867 7.61063 28.9839 8.49201 29.1984C14.85 30.7457 18.9833 30.7456 25.3413 29.1983C26.2227 28.9839 26.8334 28.1866 26.8334 27.2795Z" fill="#FF9228"/>
<path id="Vector 19" d="M14.8694 4.01627L1.90346 11.2778C1.57188 11.4635 1.5605 11.9366 1.88276 12.138L18.6054 22.5905C19.3381 23.0485 20.2821 22.9841 20.9458 22.4309L33.2201 12.2016C33.5036 11.9653 33.4422 11.5137 33.1058 11.3618L16.6699 3.93853C16.0914 3.67725 15.4232 3.7061 14.8694 4.01627Z" fill="#FF9228" stroke="#FFF5F3" stroke-width="1.5" stroke-linecap="round"/>
<path id="Rectangle 46" d="M27.4167 25.1084C20.1269 26.664 13.7065 26.6642 6.41667 25.1084" stroke="#FFF5F3" stroke-width="1.5"/>
<path id="Ellipse 17" d="M19.0833 11.1072C19.0833 11.9818 18.3744 12.6907 17.5 12.6907C16.6256 12.6907 15.9167 11.9818 15.9167 11.1072C15.9167 10.2325 16.6256 9.52364 17.5 9.52364C18.3744 9.52364 19.0833 10.2325 19.0833 11.1072Z" stroke="#FFF5F3" stroke-width="1.5"/>
<path id="Vector 18" d="M19.25 11.6903L29.1667 14.5833" stroke="#FFF5F3" stroke-width="1.5" stroke-linecap="round"/>
<path id="Vector 42" d="M28.9824 20.2544V15.5712L29.0091 15.5488V20.2544C29.0091 20.2577 29.0086 20.2588 29.0084 20.2594L29.0084 20.2594C29.0079 20.2605 29.007 20.2621 29.0052 20.2639C29.0035 20.2656 29.0018 20.2666 29.0007 20.267C29.0002 20.2673 28.999 20.2678 28.9958 20.2678C28.9926 20.2678 28.9914 20.2673 28.9908 20.2671L28.9908 20.267C28.9897 20.2666 28.9881 20.2656 28.9863 20.2639C28.9846 20.2621 28.9836 20.2605 28.9832 20.2594L28.9832 20.2594C28.9829 20.2588 28.9824 20.2577 28.9824 20.2544Z" stroke="#FF9228" stroke-width="1.5" stroke-linecap="round"/>
</g>
</svg>
