<svg width="32" height="32" viewBox="0 0 32 32" fill="none" xmlns="http://www.w3.org/2000/svg">
<g id="ArrowDown">
<path id="Vector" d="M6.29243 13.2925L15.2924 4.2925C15.3853 4.19952 15.4956 4.12576 15.617 4.07544C15.7384 4.02512 15.8685 3.99921 15.9999 3.99921C16.1313 3.99921 16.2615 4.02512 16.3829 4.07544C16.5043 4.12576 16.6146 4.19952 16.7074 4.2925L25.7074 13.2925C25.8951 13.4801 26.0005 13.7346 26.0005 14C26.0005 14.2654 25.8951 14.5199 25.7074 14.7075C25.5198 14.8951 25.2653 15.0006 24.9999 15.0006C24.7346 15.0006 24.4801 14.8951 24.2924 14.7075L16.9999 7.41375V27C16.9999 27.2652 16.8946 27.5196 16.707 27.7071C16.5195 27.8946 16.2651 28 15.9999 28C15.7347 28 15.4804 27.8946 15.2928 27.7071C15.1053 27.5196 14.9999 27.2652 14.9999 27L14.9999 7.41375L7.70743 14.7075C7.51979 14.8951 7.2653 15.0006 6.99993 15.0006C6.73457 15.0006 6.48007 14.8951 6.29243 14.7075C6.10479 14.5199 5.99937 14.2654 5.99937 14C5.99937 13.7346 6.10479 13.4801 6.29243 13.2925Z" fill="white"/>
</g>
</svg>
