<svg width="35" height="35" viewBox="0 0 35 35" fill="none" xmlns="http://www.w3.org/2000/svg">
<g id="Group 22">
<path id="Ellipse 18" d="M17.5 15.1892C10.4123 15.1892 4.66666 20.4126 4.66666 26.8559H30.3334C30.3334 20.4126 24.5877 15.1892 17.5 15.1892Z" fill="#FF9228"/>
<rect id="Rectangle 47" x="2.33337" y="26.8561" width="30.3334" height="5.83334" rx="2.91667" fill="#FF9228" stroke="#FFF5F3" stroke-width="1.5"/>
<circle id="Ellipse 19" cx="17.5" cy="12.8561" r="2.33334" fill="#FF9228"/>
<path id="Vector 19" d="M13.5098 2.37247C13.5098 2.37247 11.7968 3.01423 12.4385 4.72726C13.0803 6.44029 11.2572 7.49287 10.8464 7.38279" stroke="#FF9228" stroke-width="1.5" stroke-linecap="round"/>
<path id="Vector 20" d="M19.3432 1.20581C19.3432 1.20581 17.6302 1.84757 18.2719 3.5606C18.9137 5.27363 17.0906 6.3262 16.6798 6.21613" stroke="#FF9228" stroke-width="1.5" stroke-linecap="round"/>
<path id="Vector 21" d="M25.1771 2.37247C25.1771 2.37247 23.4641 3.01423 24.1058 4.72726C24.7476 6.44029 22.9245 7.49287 22.5137 7.38279" stroke="#FF9228" stroke-width="1.5" stroke-linecap="round"/>
</g>
</svg>
