<svg width="311" height="301" viewBox="0 0 311 301" fill="none" xmlns="http://www.w3.org/2000/svg">
<path fill-rule="evenodd" clip-rule="evenodd" d="M132.364 23.9829C173.359 25.5244 214.183 31.6123 245.836 57.5902C280.813 86.2961 312.608 125.448 310.937 170.541C309.298 214.769 273.682 249.371 237.763 275.456C207.447 297.472 169.76 303.337 132.364 300.225C98.4629 297.403 65.2333 285.091 43.2309 259.264C22.6896 235.153 26.8152 201.772 21.8832 170.541C15.2666 128.643 -15.5913 82.6454 9.98159 48.7215C35.954 14.2678 89.1208 22.3568 132.364 23.9829Z" fill="#FFD6AD"/>
<path d="M192.161 70.3942H190.856V34.6687C190.856 31.9533 190.322 29.2645 189.283 26.7558C188.244 24.2471 186.721 21.9675 184.801 20.0474C182.881 18.1272 180.601 16.6041 178.093 15.5648C175.584 14.5256 172.895 13.9907 170.18 13.9906H94.4901C89.0062 13.9906 83.7469 16.1691 79.8692 20.0468C75.9915 23.9245 73.813 29.1838 73.813 34.6677V230.662C73.813 236.146 75.9915 241.405 79.8692 245.283C83.7469 249.16 89.0062 251.339 94.4901 251.339H170.18C175.664 251.339 180.923 249.16 184.801 245.283C188.679 241.405 190.857 236.146 190.857 230.662V95.8243H192.162L192.161 70.3942Z" fill="#3F3D56"/>
<path d="M186.456 34.8129V230.518C186.456 234.613 184.829 238.541 181.933 241.437C179.037 244.333 175.109 245.96 171.014 245.96H94.9612C90.8658 245.96 86.9382 244.333 84.0423 241.437C81.1463 238.541 79.5194 234.613 79.5193 230.518V34.8129C79.5197 30.7178 81.1467 26.7904 84.0425 23.8948C86.9383 20.9991 90.8657 19.3723 94.9609 19.3721H104.187C103.734 20.4861 103.561 21.6945 103.685 22.891C103.808 24.0874 104.223 25.2352 104.894 26.2334C105.565 27.2317 106.471 28.0497 107.533 28.6156C108.594 29.1815 109.778 29.4779 110.981 29.4787H154.342C155.545 29.4778 156.729 29.1814 157.791 28.6155C158.852 28.0496 159.758 27.2315 160.429 26.2333C161.1 25.2351 161.515 24.0873 161.638 22.8909C161.761 21.6945 161.589 20.4861 161.135 19.3721H171.014C175.109 19.3722 179.037 20.9991 181.933 23.895C184.829 26.7909 186.456 30.7186 186.456 34.814V34.8129Z" fill="white"/>
<path d="M90.1344 38.8883C90.5586 38.8883 90.9025 38.5445 90.9025 38.1203C90.9025 37.6962 90.5586 37.3523 90.1344 37.3523C89.7103 37.3523 89.3664 37.6962 89.3664 38.1203C89.3664 38.5445 89.7103 38.8883 90.1344 38.8883Z" fill="#3F3D56"/>
<path d="M92.9505 38.8883C93.3747 38.8883 93.7186 38.5445 93.7186 38.1203C93.7186 37.6962 93.3747 37.3523 92.9505 37.3523C92.5264 37.3523 92.1825 37.6962 92.1825 38.1203C92.1825 38.5445 92.5264 38.8883 92.9505 38.8883Z" fill="#3F3D56"/>
<path d="M95.7669 38.8883C96.1911 38.8883 96.5349 38.5445 96.5349 38.1203C96.5349 37.6962 96.1911 37.3523 95.7669 37.3523C95.3428 37.3523 94.9989 37.6962 94.9989 38.1203C94.9989 38.5445 95.3428 38.8883 95.7669 38.8883Z" fill="#3F3D56"/>
<path d="M176.162 36.0723H168.225V37.0963H176.162V36.0723Z" fill="#3F3D56"/>
<path d="M176.162 37.6083H168.225V38.6323H176.162V37.6083Z" fill="#3F3D56"/>
<path d="M176.162 39.1447H168.225V40.1687H176.162V39.1447Z" fill="#3F3D56"/>
<path d="M135.473 51.3645H96.5579C94.825 51.3665 93.1636 52.1627 91.938 53.5785C90.7124 54.9944 90.0226 56.9143 90.0201 58.9171V152.965H164.119V84.4741C164.11 75.696 161.089 67.2803 155.719 61.0732C150.349 54.8662 143.067 51.3746 135.473 51.3645Z" fill="white"/>
<path d="M151.293 144.499H102.846C102.428 144.499 102.026 144.701 101.73 145.062C101.434 145.423 101.267 145.912 101.267 146.423C101.267 146.933 101.434 147.423 101.73 147.783C102.026 148.144 102.428 148.347 102.846 148.347H151.293C151.712 148.347 152.113 148.144 152.409 147.783C152.706 147.423 152.872 146.933 152.872 146.423C152.872 145.912 152.706 145.423 152.409 145.062C152.113 144.701 151.712 144.499 151.293 144.499Z" fill="#E4E4E4"/>
<path d="M151.293 171.438H102.846C102.428 171.438 102.026 171.641 101.73 172.002C101.434 172.363 101.267 172.852 101.267 173.362C101.267 173.873 101.434 174.362 101.73 174.723C102.026 175.084 102.428 175.287 102.846 175.287H151.293C151.712 175.287 152.113 175.084 152.409 174.723C152.706 174.362 152.872 173.873 152.872 173.362C152.872 172.852 152.706 172.363 152.409 172.002C152.113 171.641 151.712 171.438 151.293 171.438Z" fill="#E4E4E4"/>
<path d="M151.293 202.226H102.846C102.428 202.226 102.026 202.429 101.73 202.79C101.434 203.151 101.267 203.64 101.267 204.15C101.267 204.661 101.434 205.15 101.73 205.511C102.026 205.872 102.428 206.075 102.846 206.075H151.293C151.712 206.075 152.113 205.872 152.409 205.511C152.706 205.15 152.872 204.661 152.872 204.15C152.872 203.64 152.706 203.151 152.409 202.79C152.113 202.429 151.712 202.226 151.293 202.226Z" fill="#E4E4E4"/>
<path d="M151.291 137.571H102.848C102.429 137.571 102.027 137.774 101.73 138.135C101.434 138.496 101.267 138.985 101.267 139.495C101.267 140.006 101.434 140.495 101.73 140.856C102.027 141.217 102.429 141.42 102.848 141.42H151.291C151.711 141.42 152.113 141.217 152.409 140.856C152.705 140.495 152.872 140.006 152.872 139.495C152.872 138.985 152.705 138.496 152.409 138.135C152.113 137.774 151.711 137.571 151.291 137.571Z" fill="#E4E4E4"/>
<path d="M151.291 164.511H102.848C102.429 164.511 102.027 164.713 101.73 165.074C101.434 165.435 101.267 165.925 101.267 166.435C101.267 166.945 101.434 167.435 101.73 167.796C102.027 168.157 102.429 168.359 102.848 168.359H151.291C151.711 168.359 152.113 168.157 152.409 167.796C152.705 167.435 152.872 166.945 152.872 166.435C152.872 165.925 152.705 165.435 152.409 165.074C152.113 164.713 151.711 164.511 151.291 164.511Z" fill="#E4E4E4"/>
<path d="M151.291 194.529H102.848C102.429 194.529 102.027 194.732 101.73 195.093C101.434 195.454 101.267 195.943 101.267 196.453C101.267 196.964 101.434 197.453 101.73 197.814C102.027 198.175 102.429 198.378 102.848 198.378H151.291C151.711 198.378 152.113 198.175 152.409 197.814C152.705 197.453 152.872 196.964 152.872 196.453C152.872 195.943 152.705 195.454 152.409 195.093C152.113 194.732 151.711 194.529 151.291 194.529Z" fill="#E4E4E4"/>
<path d="M124.146 129.874H102.867C102.443 129.874 102.036 130.077 101.736 130.438C101.436 130.799 101.267 131.288 101.267 131.798C101.267 132.309 101.436 132.798 101.736 133.159C102.036 133.52 102.443 133.723 102.867 133.723H124.146C124.571 133.723 124.978 133.52 125.278 133.159C125.578 132.798 125.746 132.309 125.746 131.798C125.746 131.288 125.578 130.799 125.278 130.438C124.978 130.077 124.571 129.874 124.146 129.874Z" fill="#E4E4E4"/>
<path d="M124.146 156.814H102.867C102.443 156.814 102.036 157.016 101.736 157.377C101.436 157.738 101.267 158.228 101.267 158.738C101.267 159.248 101.436 159.738 101.736 160.099C102.036 160.459 102.443 160.662 102.867 160.662H124.146C124.571 160.662 124.978 160.459 125.278 160.099C125.578 159.738 125.746 159.248 125.746 158.738C125.746 158.228 125.578 157.738 125.278 157.377C124.978 157.016 124.571 156.814 124.146 156.814Z" fill="#E4E4E4"/>
<path d="M124.146 187.602H102.867C102.443 187.602 102.036 187.805 101.736 188.165C101.436 188.526 101.267 189.016 101.267 189.526C101.267 190.036 101.436 190.526 101.736 190.887C102.036 191.248 102.443 191.45 102.867 191.45H124.146C124.571 191.45 124.978 191.248 125.278 190.887C125.578 190.526 125.746 190.036 125.746 189.526C125.746 189.016 125.578 188.526 125.278 188.165C124.978 187.805 124.571 187.602 124.146 187.602Z" fill="#E4E4E4"/>
<path d="M151.291 115.25H102.848C102.429 115.25 102.027 115.412 101.73 115.701C101.434 115.989 101.267 116.381 101.267 116.789C101.267 117.197 101.434 117.589 101.73 117.878C102.027 118.166 102.429 118.329 102.848 118.329H151.291C151.711 118.329 152.113 118.166 152.409 117.878C152.705 117.589 152.872 117.197 152.872 116.789C152.872 116.381 152.705 115.989 152.409 115.701C152.113 115.412 151.711 115.25 151.291 115.25Z" fill="#E4E4E4"/>
<path d="M151.293 108.323H102.846C102.428 108.323 102.026 108.485 101.73 108.773C101.434 109.062 101.267 109.454 101.267 109.862C101.267 110.27 101.434 110.662 101.73 110.95C102.026 111.239 102.428 111.401 102.846 111.401H151.293C151.712 111.401 152.113 111.239 152.409 110.95C152.706 110.662 152.872 110.27 152.872 109.862C152.872 109.454 152.706 109.062 152.409 108.773C152.113 108.485 151.712 108.323 151.293 108.323Z" fill="#E4E4E4"/>
<path d="M124.145 100.625H102.869C102.444 100.625 102.037 100.828 101.736 101.189C101.436 101.55 101.267 102.039 101.267 102.55C101.267 103.06 101.436 103.55 101.736 103.91C102.037 104.271 102.444 104.474 102.869 104.474H124.145C124.57 104.474 124.977 104.271 125.277 103.91C125.578 103.55 125.746 103.06 125.746 102.55C125.746 102.039 125.578 101.55 125.277 101.189C124.977 100.828 124.57 100.625 124.145 100.625Z" fill="#E4E4E4"/>
<path d="M151.291 85.2314H102.848C102.429 85.2314 102.027 85.4342 101.73 85.795C101.434 86.1559 101.267 86.6454 101.267 87.1557C101.267 87.666 101.434 88.1555 101.73 88.5164C102.027 88.8772 102.429 89.08 102.848 89.08H151.291C151.711 89.08 152.113 88.8772 152.409 88.5164C152.705 88.1555 152.872 87.666 152.872 87.1557C152.872 86.6454 152.705 86.1559 152.409 85.795C152.113 85.4342 151.711 85.2314 151.291 85.2314Z" fill="#130160"/>
<path d="M151.291 78.3041H102.848C102.429 78.3041 102.027 78.4663 101.73 78.755C101.434 79.0437 101.267 79.4352 101.267 79.8435C101.267 80.2518 101.434 80.6433 101.73 80.932C102.027 81.2207 102.429 81.3829 102.848 81.3829H151.291C151.711 81.3829 152.113 81.2207 152.409 80.932C152.705 80.6433 152.872 80.2518 152.872 79.8435C152.872 79.4352 152.705 79.0437 152.409 78.755C152.113 78.4663 151.711 78.3041 151.291 78.3041Z" fill="#130160"/>
<path d="M124.145 70.6071H102.869C102.444 70.6071 102.037 70.8098 101.736 71.1707C101.436 71.5315 101.267 72.021 101.267 72.5313C101.267 73.0417 101.436 73.5311 101.736 73.892C102.037 74.2528 102.444 74.4556 102.869 74.4556H124.145C124.57 74.4556 124.977 74.2528 125.277 73.892C125.578 73.5311 125.746 73.0417 125.746 72.5313C125.746 72.021 125.578 71.5315 125.277 71.1707C124.977 70.8098 124.57 70.6071 124.145 70.6071Z" fill="#130160"/>
<path d="M287.792 107.593L273.342 86.127L258.951 97.3959L272.543 107.937L275.336 141.614C274.475 142.52 273.897 143.655 273.672 144.882C273.448 146.11 273.586 147.375 274.071 148.525C274.556 149.675 275.367 150.66 276.403 151.359C277.44 152.058 278.659 152.442 279.911 152.462C281.163 152.483 282.393 152.141 283.453 151.477C284.513 150.813 285.356 149.856 285.88 148.723C286.403 147.59 286.584 146.329 286.401 145.095C286.218 143.861 285.679 142.707 284.849 141.773L287.792 107.593Z" fill="#FFB6B6"/>
<path d="M253.389 66.3413C261.033 64.9165 276.19 88.4582 276.19 88.4582C274.389 88.4966 288.285 102.445 286.805 103.119C282.6 105.035 272.574 106.531 271.02 109.117C270.13 110.596 261.268 100.53 261.268 100.53C261.268 100.53 255.73 95.2794 248.739 88.3839C246.726 86.471 245.231 84.0817 244.394 81.4385C243.558 78.7953 243.406 75.9842 243.953 73.2667C243.953 73.2667 245.744 67.7662 253.389 66.3413Z" fill="#130160"/>
<path d="M260.637 256.815L261.174 244.789C266.77 241.808 273.012 240.234 279.357 240.203C270.624 247.316 271.715 261.029 265.795 270.596C263.925 273.565 261.409 276.078 258.432 277.947C255.455 279.816 252.095 280.993 248.599 281.392L241.291 285.85C240.288 280.28 240.51 274.56 241.939 269.083C243.369 263.607 245.973 258.504 249.573 254.127C251.617 251.691 253.96 249.521 256.548 247.669C258.299 252.267 260.637 256.815 260.637 256.815Z" fill="#E6E1FF"/>
<path d="M241.807 279.662L235.189 279.661L232.041 254.23L241.808 254.23L241.807 279.662Z" fill="#FFB6B6"/>
<path d="M243.494 286.052L222.157 286.052V285.783C222.157 283.588 223.032 281.484 224.59 279.932C226.147 278.38 228.26 277.508 230.462 277.508H230.463L234.36 274.562L241.632 277.509L243.495 277.509L243.494 286.052Z" fill="#2F2E41"/>
<path d="M211.063 279.662L204.446 279.661L201.298 254.23L211.065 254.23L211.063 279.662Z" fill="#FFB6B6"/>
<path d="M212.751 286.052L191.414 286.052V285.783C191.414 283.588 192.289 281.484 193.846 279.932C195.404 278.38 197.516 277.508 199.719 277.508H199.719L203.617 274.562L210.889 277.509L212.751 277.509L212.751 286.052Z" fill="#2F2E41"/>
<path d="M208.199 140.627L251.242 141.699C259.416 146.123 259.541 155.698 256.862 167.066C256.862 167.066 257.766 173.823 255.958 175.625C254.149 177.427 253.245 177.427 254.149 180.58C255.054 183.733 250.276 188.883 250.857 189.462C251.437 190.04 252.793 193.193 252.793 193.193L248.272 218.869C248.272 218.869 245.107 263.464 244.203 264.365C243.299 265.266 242.395 264.365 243.299 266.617C244.203 268.87 245.107 267.969 244.203 268.87C243.402 269.73 242.647 270.632 241.942 271.573H231.012C231.012 271.573 230.188 267.068 230.188 266.617C230.188 266.167 229.283 263.464 229.283 263.014C229.283 262.563 230.083 261.767 230.083 261.767C230.359 260.851 230.545 259.911 230.64 258.96C230.64 258.059 233.352 223.374 233.352 223.374L227.927 178.328L214.816 222.473C214.816 222.473 214.816 261.212 213.912 262.113C213.007 263.014 213.007 262.563 213.46 264.365C213.912 266.167 215.72 265.717 214.364 267.068C213.007 268.419 212.555 266.167 213.007 268.419L213.46 270.672L199.896 270.865C199.896 270.865 198.088 267.068 198.992 265.717C199.896 264.365 199.842 264.734 198.739 262.523C197.636 260.311 197.184 259.861 197.636 259.41C198.088 258.96 198.088 256.564 198.088 256.564L200.348 213.463C200.348 213.463 200.8 167.967 200.8 166.616C200.835 165.921 200.706 165.227 200.425 164.589V162.755L202.157 156.255L208.199 140.627Z" fill="#69687F"/>
<path d="M234.055 51.4537C241.441 51.4537 247.429 45.488 247.429 38.129C247.429 30.7699 241.441 24.8042 234.055 24.8042C226.669 24.8042 220.682 30.7699 220.682 38.129C220.682 45.488 226.669 51.4537 234.055 51.4537Z" fill="#FFB6B6"/>
<path d="M227.369 60.2606C224.487 61.9672 222.764 65.1028 221.775 68.2937C219.943 74.2011 218.84 80.3088 218.491 86.4819L217.446 104.963L204.504 144.315C215.721 153.771 257.882 146.464 257.882 146.464C257.882 146.464 259.176 146.034 257.882 144.744C256.588 143.455 255.328 144.597 256.622 143.308C257.916 142.018 257.024 143.455 256.593 142.165C256.161 140.876 256.593 141.736 257.024 141.306C257.456 140.876 253.684 137.007 253.684 137.007L257.136 114.419L261.45 68.8571C256.273 62.4097 245.861 58.6089 245.861 58.6089L243.171 53.7843L229.72 54.8564L227.369 60.2606Z" fill="#130160"/>
<path d="M225.534 30.309C226.052 30.3131 226.567 30.3804 227.068 30.5095C228.055 30.7461 229.058 30.9137 230.069 31.011C233.165 31.3013 236.075 32.6168 238.332 34.7475C240.59 36.8783 242.066 39.7013 242.524 42.7658C243.301 42.0907 245.069 40.849 246.519 42.0031C246.541 42.0214 246.554 42.0308 246.605 42.0067C247.567 41.5518 249.276 35.9519 249.328 31.0213C249.355 28.4043 248.941 25.0625 246.817 24.0042L246.705 23.9485L246.676 23.8273C246.534 23.2386 244.948 22.2337 242.192 21.4516C237.184 20.0303 229.718 17.2615 225.515 21.3362C225.196 22.7099 224.161 25.6496 223.116 25.9828C221.958 26.3516 220.958 26.6699 220.8 28.0849C220.669 30.0986 220.678 32.119 220.829 34.1314C221.221 32.9 221.991 31.8222 223.031 31.0498C223.77 30.5541 224.643 30.2956 225.534 30.309Z" fill="#2F2E41"/>
<path d="M200.642 103.934L222.488 89.9945L211.485 75.4213L200.62 88.7372L166.767 90.8059C165.877 89.9289 164.75 89.3291 163.523 89.0794C162.297 88.8298 161.023 88.9411 159.859 89.3998C158.695 89.8586 157.69 90.645 156.966 91.663C156.243 92.6811 155.832 93.8869 155.785 95.1334C155.737 96.38 156.055 97.6133 156.699 98.6831C157.343 99.753 158.285 100.613 159.411 101.158C160.537 101.704 161.798 101.911 163.04 101.755C164.282 101.599 165.452 101.086 166.406 100.279L200.642 103.934Z" fill="#FFB6B6"/>
<path d="M242.764 70.5379C244.032 78.1831 220.088 92.7822 220.088 92.7822C220.088 90.9878 205.797 104.535 205.152 103.047C203.319 98.8168 202.03 88.7984 199.468 87.1949C198.003 86.2778 208.291 77.6632 208.291 77.6632C208.291 77.6632 213.677 72.2575 220.744 65.4391C222.706 63.4745 225.135 62.0365 227.805 61.2589C230.475 60.4813 233.299 60.3894 236.015 60.9918C236.015 60.9918 241.496 62.8926 242.764 70.5379Z" fill="#130160"/>
<path d="M291.483 286.159C291.484 286.242 291.467 286.326 291.435 286.403C291.403 286.481 291.356 286.551 291.296 286.61C291.237 286.67 291.166 286.717 291.088 286.748C291.011 286.78 290.927 286.797 290.843 286.797H140.037C139.867 286.797 139.705 286.729 139.585 286.61C139.464 286.49 139.397 286.328 139.397 286.159C139.397 285.989 139.464 285.827 139.585 285.707C139.705 285.588 139.867 285.521 140.037 285.521H290.843C290.927 285.52 291.011 285.537 291.088 285.569C291.166 285.601 291.237 285.648 291.296 285.707C291.356 285.766 291.403 285.837 291.435 285.914C291.467 285.992 291.484 286.075 291.483 286.159Z" fill="#130160"/>
<circle cx="68.2056" cy="25.2056" r="25.2056" fill="#FCA34D"/>
<path d="M76.0081 31.8289L79.2702 35.0893C79.4223 35.2468 79.5065 35.4578 79.5046 35.6767C79.5027 35.8957 79.4149 36.1052 79.26 36.26C79.1052 36.4149 78.8957 36.5027 78.6768 36.5046C78.4578 36.5065 78.2468 36.4223 78.0893 36.2702L74.8272 33.0081C72.6955 34.8345 69.9393 35.7642 67.1369 35.6022C64.3345 35.4402 61.7037 34.1991 59.7967 32.1393C57.8896 30.0794 56.8545 27.361 56.9085 24.5545C56.9626 21.7479 58.1015 19.0713 60.0864 17.0864C62.0714 15.1015 64.7479 13.9625 67.5545 13.9085C70.3611 13.8545 73.0795 14.8896 75.1393 16.7967C77.1991 18.7037 78.4403 21.3345 78.6023 24.1369C78.7642 26.9393 77.8345 29.6955 76.0081 31.8272V31.8289ZM67.7636 33.9502C70.2 33.9502 72.5367 32.9823 74.2595 31.2595C75.9823 29.5366 76.9502 27.2 76.9502 24.7635C76.9502 22.3271 75.9823 19.9904 74.2595 18.2676C72.5367 16.5448 70.2 15.5769 67.7636 15.5769C65.3271 15.5769 62.9905 16.5448 61.2677 18.2676C59.5448 19.9904 58.577 22.3271 58.577 24.7635C58.577 27.2 59.5448 29.5366 61.2677 31.2595C62.9905 32.9823 65.3271 33.9502 67.7636 33.9502Z" fill="white"/>
</svg>
